# Blender v2.79 (sub 0) OBJ File: ''
# www.blender.org
mtllib t11.mtl
o Cube.001
v -1.112440 0.364238 1.923810
v -1.112440 2.364238 1.923810
v -1.112440 0.364238 -0.076190
v -1.112440 2.364238 -0.076190
v 0.887560 0.364238 1.923810
v 0.887560 2.364238 1.923810
v 0.887560 0.364238 -0.076190
v 0.887560 2.364238 -0.076190
v 1.579052 0.199960 -0.683089
v 1.169718 -0.779828 1.011745
v -0.369859 -1.688204 0.114774
v 0.039475 -0.708416 -1.580060
v 0.369859 1.688204 -0.114774
v -0.039476 0.708415 1.580060
v -1.579052 -0.199960 0.683089
v -1.169718 0.779828 -1.011745
vn -1.0000 0.0000 0.0000
vn 0.0000 0.0000 -1.0000
vn 1.0000 0.0000 0.0000
vn 0.0000 0.0000 1.0000
vn 0.0000 -1.0000 0.0000
vn 0.0000 1.0000 0.0000
vn 0.6046 -0.7441 -0.2842
vn -0.6046 0.7441 0.2842
vn 0.7698 0.4542 0.4485
vn -0.2047 -0.4899 0.8474
vn -0.7698 -0.4542 -0.4485
vn 0.2047 0.4899 -0.8474
usemtl Material
s off
f 1//1 2//1 4//1 3//1
f 3//2 4//2 8//2 7//2
f 7//3 8//3 6//3 5//3
f 5//4 6//4 2//4 1//4
f 3//5 7//5 5//5 1//5
f 8//6 4//6 2//6 6//6
f 9//7 10//7 11//7 12//7
f 13//8 16//8 15//8 14//8
f 9//9 13//9 14//9 10//9
f 10//10 14//10 15//10 11//10
f 11//11 15//11 16//11 12//11
f 13//12 9//12 12//12 16//12
